<svg width="24" height="24" viewBox="0 0 24 24" fill="none" xmlns="http://www.w3.org/2000/svg">
<path d="M23.6164 6.09693L22.8302 5.30531C22.5828 5.05809 22.2536 4.9219 21.9018 4.9219C21.5502 4.9219 21.2207 5.05809 20.9732 5.30531L12.0054 14.2736L3.02715 5.29536C2.78012 5.04814 2.45056 4.91214 2.09894 4.91214C1.74733 4.91214 1.41757 5.04814 1.17035 5.29536L0.384003 6.0821C-0.128001 6.59371 -0.128001 7.42709 0.384003 7.9387L11.0737 18.6668C11.3207 18.9138 11.6499 19.0879 12.0046 19.0879H12.0087C12.3605 19.0879 12.6897 18.9136 12.9367 18.6668L23.6164 7.96777C23.8638 7.72075 23.9996 7.38162 24 7.03001C24 6.6782 23.8638 6.34376 23.6164 6.09693Z" fill="#6B5AF9"/>
</svg>
