<svg width="35" height="35" viewBox="0 0 35 35" fill="none" xmlns="http://www.w3.org/2000/svg">
<g clip-path="url(#clip0_362_72)">
<path d="M17.5044 0H17.4956C7.84656 0 0 7.84875 0 17.5C0 21.3281 1.23375 24.8762 3.33156 27.7572L1.15062 34.2584L7.87719 32.1081C10.6444 33.9412 13.9453 35 17.5044 35C27.1534 35 35 27.1491 35 17.5C35 7.85094 27.1534 0 17.5044 0Z" fill="white"/>
<path d="M27.6872 24.712C27.265 25.9042 25.5894 26.893 24.2528 27.1817C23.3385 27.3764 22.1441 27.5317 18.1235 25.8648C12.9806 23.7342 9.66877 18.5083 9.41065 18.1692C9.16346 17.8302 7.33252 15.402 7.33252 12.8908C7.33252 10.3795 8.60783 9.15672 9.1219 8.63172C9.54408 8.20078 10.2419 8.00391 10.9113 8.00391C11.1278 8.00391 11.3225 8.01484 11.4975 8.02359C12.0116 8.04547 12.2697 8.07609 12.6088 8.88766C13.031 9.90484 14.0591 12.4161 14.1816 12.6742C14.3063 12.9323 14.431 13.2823 14.256 13.6214C14.0919 13.9714 13.9475 14.1267 13.6894 14.4242C13.4313 14.7217 13.1863 14.9492 12.9281 15.2686C12.6919 15.5464 12.425 15.8439 12.7225 16.358C13.02 16.8611 14.0481 18.5389 15.5619 19.8864C17.5153 21.6255 19.0991 22.1811 19.6656 22.4173C20.0878 22.5923 20.591 22.5508 20.8994 22.2227C21.291 21.8005 21.7744 21.1005 22.2666 20.4114C22.6166 19.917 23.0585 19.8558 23.5222 20.0308C23.9947 20.1948 26.495 21.4308 27.0091 21.6867C27.5231 21.9448 27.8622 22.0673 27.9869 22.2839C28.1094 22.5005 28.1094 23.5176 27.6872 24.712Z" fill="#2A2367"/>
</g>
<defs>
<clipPath id="clip0_362_72">
<rect width="35" height="35" fill="white"/>
</clipPath>
</defs>
</svg>
