<svg width="21" height="21" viewBox="0 0 21 21" fill="none" xmlns="http://www.w3.org/2000/svg">
<g clip-path="url(#clip0_439_596)">
<path d="M19.7881 15.0058L16.9941 12.2118C15.9963 11.214 14.2999 11.6131 13.9008 12.9103C13.6014 13.8084 12.6036 14.3073 11.7055 14.1077C9.70985 13.6088 7.01567 11.0144 6.51675 8.91892C6.21739 8.02082 6.8161 7.02297 7.71416 6.72366C9.01136 6.32452 9.4105 4.62818 8.41265 3.63034L5.61869 0.836369C4.82041 0.137877 3.62299 0.137877 2.9245 0.836369L1.0286 2.73228C-0.86731 4.72797 1.22817 10.0165 5.91804 14.7064C10.6079 19.3963 15.8965 21.5916 17.8922 19.5959L19.7881 17.7C20.4866 16.9017 20.4866 15.7043 19.7881 15.0058Z" fill="white"/>
</g>
<defs>
<clipPath id="clip0_439_596">
<rect width="20.0208" height="20.0208" fill="white" transform="translate(0.3125 0.3125)"/>
</clipPath>
</defs>
</svg>
