<svg width="18" height="18" viewBox="0 0 18 18" fill="none" xmlns="http://www.w3.org/2000/svg">
<g clip-path="url(#clip0_184_19)">
<path d="M9 18C13.9706 18 18 13.9706 18 9C18 4.02944 13.9706 0 9 0C4.02944 0 0 4.02944 0 9C0 13.9706 4.02944 18 9 18Z" fill="#707070"/>
<path d="M4.1182 8.805L12.7957 5.45925C13.1985 5.31375 13.5502 5.5575 13.4197 6.1665L13.4205 6.16575L11.943 13.1265C11.8335 13.62 11.5402 13.74 11.13 13.5075L8.87995 11.8493L7.7947 12.8948C7.6747 13.0148 7.57345 13.116 7.34095 13.116L7.5007 10.8263L11.6707 7.059C11.8522 6.89925 11.6302 6.80925 11.391 6.96825L6.2377 10.2128L4.0162 9.51975C3.53395 9.36675 3.52345 9.0375 4.1182 8.805Z" fill="white"/>
</g>
<defs>
<clipPath id="clip0_184_19">
<rect width="18" height="18" fill="white"/>
</clipPath>
</defs>
</svg>
