<svg width="23" height="23" viewBox="0 0 23 23" fill="none" xmlns="http://www.w3.org/2000/svg">
<g clip-path="url(#clip0_497_6866)">
<path d="M11.5 23C17.8513 23 23 17.8513 23 11.5C23 5.14873 17.8513 0 11.5 0C5.14873 0 0 5.14873 0 11.5C0 17.8513 5.14873 23 11.5 23Z" fill="#2197D5"/>
<path d="M5.26234 11.2508L16.3503 6.97572C16.8649 6.7898 17.3143 7.10126 17.1476 7.87942L17.1485 7.87847L15.2606 16.7728C15.1207 17.4033 14.746 17.5567 14.2218 17.2596L11.3468 15.1407L9.96009 16.4766C9.80675 16.63 9.67738 16.7593 9.3803 16.7593L9.58442 13.8336L14.9128 9.01984C15.1447 8.81572 14.861 8.70072 14.5553 8.90388L7.97059 13.0496L5.132 12.1641C4.5158 11.9686 4.50238 11.5479 5.26234 11.2508Z" fill="white"/>
</g>
<defs>
<clipPath id="clip0_497_6866">
<rect width="23" height="23" fill="white"/>
</clipPath>
</defs>
</svg>
